<svg width="106" height="51" viewBox="0 0 106 51" fill="none" xmlns="http://www.w3.org/2000/svg">
<path d="M9.536 10.684C9.536 11.5053 9.85333 12.2707 10.488 12.98C11.1413 13.6707 11.9253 14.2867 12.84 14.828C13.7733 15.3507 14.6973 15.892 15.612 16.452C16.5267 16.9933 17.3013 17.6653 17.936 18.468C18.5893 19.2707 18.916 20.1573 18.916 21.128C18.916 22.6587 18.3467 23.9093 17.208 24.88C16.088 25.8507 14.5667 26.336 12.644 26.336C10.7213 26.336 8.81733 25.972 6.932 25.244V23.928C8.836 24.88 10.4507 25.356 11.776 25.356C13.12 25.356 14.1653 25.0293 14.912 24.376C15.6587 23.7227 16.032 22.8173 16.032 21.66C16.032 20.876 15.724 20.1667 15.108 19.532C14.492 18.8787 13.7453 18.3187 12.868 17.852C11.9907 17.3667 11.1133 16.872 10.236 16.368C9.35867 15.864 8.612 15.2293 7.996 14.464C7.38 13.68 7.072 12.7373 7.072 11.636C7.072 10.5347 7.55733 9.508 8.528 8.556C9.51733 7.604 10.9827 7.128 12.924 7.128C14.1933 7.128 15.7987 7.41733 17.74 7.996L17.46 9.9C14.94 8.81733 12.784 8.276 10.992 8.276C10.0213 8.74267 9.536 9.54533 9.536 10.684ZM31.5066 7.128C33.9333 7.128 35.9399 7.93067 37.5266 9.536C39.1133 11.1227 39.9066 13.3347 39.9066 16.172C39.9066 18.0013 39.5893 19.6067 38.9546 20.988C38.3199 22.3507 37.4893 23.4053 36.4626 24.152C34.4653 25.608 32.2626 26.336 29.8546 26.336C27.4466 26.336 25.4493 25.5333 23.8626 23.928C22.2946 22.304 21.5106 20.0733 21.5106 17.236C21.5106 15.7613 21.7159 14.436 22.1266 13.26C22.5559 12.0653 23.1066 11.0947 23.7786 10.348C24.4693 9.60133 25.2626 8.976 26.1586 8.472C27.8013 7.576 29.5839 7.128 31.5066 7.128ZM25.8786 22.808C26.3639 23.6293 27.0173 24.2733 27.8386 24.74C28.6599 25.188 29.6026 25.412 30.6666 25.412C31.7493 25.412 32.7106 25.1413 33.5506 24.6C34.3906 24.0587 35.0439 23.3493 35.5106 22.472C36.4626 20.7173 36.9386 18.832 36.9386 16.816C36.9386 14.3333 36.4439 12.336 35.4546 10.824C34.3533 9.12533 32.5333 8.276 29.9946 8.276C28.1839 8.91067 26.8119 10.0027 25.8786 11.552C24.9453 13.1013 24.4786 14.856 24.4786 16.816C24.4786 19.2053 24.9453 21.2027 25.8786 22.808ZM46.2237 26H43.3677V7.464H46.2237V16.592L54.8757 7.464H56.7237L47.9597 16.088L57.8997 26L54.3157 26.364L46.2237 16.872V26ZM74.2062 7.464V18.832C74.2062 20.568 74.0195 21.8747 73.6462 22.752C73.4782 23.144 73.2075 23.592 72.8342 24.096C72.4795 24.5813 72.0595 24.9733 71.5742 25.272C70.3422 25.9813 68.8022 26.336 66.9542 26.336C62.3248 26.336 60.0102 23.956 60.0102 19.196V7.464H62.8662V19.42C62.8662 19.9613 62.8755 20.4 62.8942 20.736C62.9128 21.072 63.0062 21.548 63.1742 22.164C63.3608 22.78 63.6035 23.2747 63.9022 23.648C64.2195 24.0213 64.7048 24.3573 65.3582 24.656C66.0302 24.9547 66.8235 25.104 67.7382 25.104C71.2288 25.104 72.9742 23.2373 72.9742 19.504V7.464H74.2062ZM81.5765 17.152V26H78.8325V7.464H84.8805C86.7658 7.464 88.3058 7.884 89.5005 8.724C90.7138 9.564 91.3205 10.6747 91.3205 12.056C91.3205 13.4187 90.8352 14.5013 89.8645 15.304C88.9125 16.088 87.6152 16.6293 85.9725 16.928L93.4765 26L90.2285 26.392L83.7325 17.152H81.5765ZM81.5765 16.312H83.3685C86.7285 16.312 88.4085 14.9867 88.4085 12.336C88.4085 11.888 88.2965 11.384 88.0725 10.824C87.6432 9.648 86.7285 8.87333 85.3285 8.5C84.0592 8.5 82.8085 8.65867 81.5765 8.976V16.312Z" fill="black"/>
<path d="M17.752 41.512C17.752 41.9493 17.8427 42.2533 18.024 42.424C18.2053 42.584 18.52 42.664 18.968 42.664V43C17.9867 42.9573 17.3467 42.936 17.048 42.936C16.7493 42.936 16.152 42.9573 15.256 43V42.664C15.6507 42.664 15.9227 42.584 16.072 42.424C16.232 42.2533 16.312 41.9493 16.312 41.512V36.888C16.312 36.4827 16.2853 36.1573 16.232 35.912C16.1893 35.656 16.0773 35.448 15.896 35.288C15.7253 35.128 15.4587 35.048 15.096 35.048C14.6907 35.048 14.3227 35.176 13.992 35.432C13.6613 35.688 13.4 36.04 13.208 36.488C13.0267 36.9253 12.936 37.4107 12.936 37.944V41.512C12.936 41.9493 13.0267 42.2533 13.208 42.424C13.3893 42.584 13.704 42.664 14.152 42.664V43C13.1707 42.9573 12.5307 42.936 12.232 42.936C11.9333 42.936 11.336 42.9573 10.44 43V42.664C10.8347 42.664 11.1067 42.584 11.256 42.424C11.416 42.2533 11.496 41.9493 11.496 41.512V36.888C11.496 36.4827 11.4693 36.1573 11.416 35.912C11.3733 35.656 11.2613 35.448 11.08 35.288C10.9093 35.128 10.6427 35.048 10.28 35.048C9.87467 35.048 9.50667 35.176 9.176 35.432C8.84533 35.688 8.584 36.04 8.392 36.488C8.21067 36.936 8.12 37.4267 8.12 37.96V41.512C8.12 41.9493 8.19467 42.2533 8.344 42.424C8.504 42.584 8.78133 42.664 9.176 42.664V43C8.28 42.9573 7.68267 42.936 7.384 42.936C7.08533 42.936 6.44533 42.9573 5.464 43V42.664C5.912 42.664 6.22667 42.584 6.408 42.424C6.58933 42.2533 6.68 41.9493 6.68 41.512V36.504C6.68 36.0133 6.58933 35.656 6.408 35.432C6.22667 35.208 5.912 35.096 5.464 35.096V34.76C5.80533 34.792 6.136 34.808 6.456 34.808C7.128 34.808 7.68267 34.7333 8.12 34.584V36.472C8.376 35.8107 8.73867 35.3253 9.208 35.016C9.67733 34.696 10.1893 34.536 10.744 34.536C11.4693 34.536 12.024 34.7387 12.408 35.144C12.6747 35.4213 12.84 35.848 12.904 36.424C13.1707 35.752 13.5387 35.272 14.008 34.984C14.4773 34.6853 14.9947 34.536 15.56 34.536C16.2853 34.536 16.84 34.7387 17.224 35.144C17.416 35.3573 17.5493 35.6293 17.624 35.96C17.7093 36.2907 17.752 36.7173 17.752 37.24V41.512ZM23.5871 34.536C24.6751 34.536 25.5498 34.8987 26.2111 35.624C26.8831 36.3387 27.2191 37.4267 27.2191 38.888C27.2191 40.3493 26.8831 41.4373 26.2111 42.152C25.5498 42.8667 24.6751 43.224 23.5871 43.224C22.4991 43.224 21.6191 42.8667 20.9471 42.152C20.2858 41.4373 19.9551 40.3493 19.9551 38.888C19.9551 37.4267 20.2858 36.3387 20.9471 35.624C21.6191 34.8987 22.4991 34.536 23.5871 34.536ZM23.5871 34.856C22.9471 34.856 22.4405 35.1867 22.0671 35.848C21.6938 36.4987 21.5071 37.512 21.5071 38.888C21.5071 40.264 21.6938 41.2773 22.0671 41.928C22.4405 42.5787 22.9471 42.904 23.5871 42.904C24.2271 42.904 24.7338 42.5787 25.1071 41.928C25.4805 41.2773 25.6671 40.264 25.6671 38.888C25.6671 37.512 25.4805 36.4987 25.1071 35.848C24.7338 35.1867 24.2271 34.856 23.5871 34.856ZM35.7128 41.256C35.7128 41.7467 35.8034 42.104 35.9848 42.328C36.1661 42.552 36.4808 42.664 36.9288 42.664V43C36.5981 42.968 36.2674 42.952 35.9368 42.952C35.2648 42.952 34.7101 43.0267 34.2728 43.176V41.752C34.0808 42.232 33.7928 42.6 33.4088 42.856C33.0248 43.1013 32.5554 43.224 32.0008 43.224C30.9768 43.224 30.1714 42.856 29.5848 42.12C29.0088 41.384 28.7261 40.3067 28.7368 38.888C28.7368 37.96 28.8968 37.1707 29.2168 36.52C29.5474 35.8587 29.9848 35.3627 30.5288 35.032C31.0834 34.7013 31.6914 34.536 32.3528 34.536C32.7581 34.536 33.1261 34.616 33.4568 34.776C33.7981 34.9253 34.0701 35.16 34.2728 35.48V32.376C34.2728 31.8853 34.1821 31.528 34.0008 31.304C33.8194 31.08 33.5048 30.968 33.0568 30.968V30.632C33.3981 30.664 33.7288 30.68 34.0488 30.68C34.7208 30.68 35.2754 30.6053 35.7128 30.456V41.256ZM32.4648 42.744C32.8808 42.744 33.2541 42.584 33.5848 42.264C33.9154 41.944 34.1448 41.4907 34.2728 40.904V36.136C33.9848 35.3147 33.3874 34.904 32.4808 34.904C31.8194 34.904 31.2861 35.2453 30.8808 35.928C30.4754 36.6 30.2781 37.5867 30.2888 38.888C30.2781 40.168 30.4594 41.1333 30.8328 41.784C31.2061 42.424 31.7501 42.744 32.4648 42.744ZM44.6736 41.08C44.4816 41.6667 44.119 42.1733 43.5856 42.6C43.063 43.016 42.4283 43.224 41.6816 43.224C40.9243 43.224 40.2683 43.0533 39.7136 42.712C39.159 42.36 38.7323 41.8747 38.4336 41.256C38.1456 40.6267 38.0016 39.9013 38.0016 39.08C38.0016 38.152 38.151 37.3467 38.4496 36.664C38.7483 35.9813 39.1696 35.4587 39.7136 35.096C40.2576 34.7227 40.8923 34.536 41.6176 34.536C42.5776 34.536 43.3136 34.8293 43.8256 35.416C44.3483 35.992 44.6096 36.872 44.6096 38.056H39.6016C39.5696 38.3547 39.5536 38.696 39.5536 39.08C39.5536 39.784 39.6656 40.3973 39.8896 40.92C40.1243 41.4427 40.4283 41.848 40.8016 42.136C41.1856 42.4133 41.5856 42.552 42.0016 42.552C42.5136 42.552 42.967 42.4293 43.3616 42.184C43.7563 41.9387 44.087 41.528 44.3536 40.952L44.6736 41.08ZM41.5536 34.84C41.0523 34.84 40.6203 35.0853 40.2576 35.576C39.895 36.0667 39.671 36.792 39.5856 37.752H43.0736C43.095 36.92 42.9723 36.2267 42.7056 35.672C42.4496 35.1173 42.0656 34.84 41.5536 34.84ZM48.3674 41.512C48.3674 41.9493 48.458 42.2533 48.6394 42.424C48.8207 42.584 49.1354 42.664 49.5834 42.664V43C48.602 42.9573 47.9567 42.936 47.6474 42.936C47.338 42.936 46.6927 42.9573 45.7114 43V42.664C46.1594 42.664 46.474 42.584 46.6554 42.424C46.8367 42.2533 46.9274 41.9493 46.9274 41.512V32.376C46.9274 31.8853 46.8367 31.528 46.6554 31.304C46.474 31.08 46.1594 30.968 45.7114 30.968V30.632C46.042 30.664 46.3727 30.68 46.7034 30.68C47.3754 30.68 47.93 30.6053 48.3674 30.456V41.512ZM56.5299 43.112C55.8579 43.112 55.3565 42.9467 55.0259 42.616C54.7059 42.2747 54.5459 41.8053 54.5459 41.208C54.5459 40.728 54.6739 40.3333 54.9299 40.024C55.1965 39.7147 55.5059 39.4693 55.8579 39.288C56.2205 39.1067 56.6952 38.9147 57.2819 38.712C57.8792 38.5093 58.3219 38.3227 58.6099 38.152C58.8979 37.9813 59.0419 37.752 59.0419 37.464V36.472C59.0419 35.8533 58.9085 35.432 58.6419 35.208C58.3859 34.9733 58.0232 34.856 57.5539 34.856C56.8072 34.856 56.2792 35.048 55.9699 35.432C56.1832 35.4853 56.3592 35.5973 56.4979 35.768C56.6472 35.9387 56.7219 36.152 56.7219 36.408C56.7219 36.6747 56.6365 36.888 56.4659 37.048C56.2952 37.1973 56.0765 37.272 55.8099 37.272C55.5112 37.272 55.2872 37.1813 55.1379 37C54.9885 36.808 54.9139 36.5787 54.9139 36.312C54.9139 36.056 54.9725 35.8427 55.0899 35.672C55.2179 35.5013 55.4045 35.3307 55.6499 35.16C55.9059 34.9787 56.2312 34.8293 56.6259 34.712C57.0205 34.5947 57.4525 34.536 57.9219 34.536C58.7539 34.536 59.3832 34.7333 59.8099 35.128C60.0765 35.3733 60.2525 35.672 60.3379 36.024C60.4339 36.3653 60.4819 36.8187 60.4819 37.384V41.832C60.4819 42.0987 60.5192 42.2907 60.5939 42.408C60.6685 42.5253 60.7965 42.584 60.9779 42.584C61.1059 42.584 61.2232 42.5573 61.3299 42.504C61.4472 42.44 61.5699 42.3547 61.6979 42.248L61.8739 42.52C61.5965 42.7333 61.3565 42.888 61.1539 42.984C60.9619 43.0693 60.7165 43.112 60.4179 43.112C59.9059 43.112 59.5485 42.984 59.3459 42.728C59.1432 42.472 59.0419 42.1253 59.0419 41.688C58.7219 42.2213 58.3539 42.5947 57.9379 42.808C57.5219 43.0107 57.0525 43.112 56.5299 43.112ZM57.2339 42.472C57.9379 42.472 58.5405 42.0667 59.0419 41.256V38.12C58.9459 38.2693 58.8125 38.392 58.6419 38.488C58.4712 38.584 58.2099 38.712 57.8579 38.872C57.4525 39.0427 57.1219 39.208 56.8659 39.368C56.6205 39.5173 56.4072 39.7253 56.2259 39.992C56.0445 40.2587 55.9539 40.6 55.9539 41.016C55.9539 41.496 56.0712 41.8587 56.3059 42.104C56.5405 42.3493 56.8499 42.472 57.2339 42.472ZM69.4266 36.2C69.2346 36.2 69.0693 36.136 68.9306 36.008C68.8026 35.88 68.7386 35.6933 68.7386 35.448C68.7386 35.2347 68.792 34.9893 68.8986 34.712C68.6213 34.8293 68.4026 34.9627 68.2426 35.112C68.0826 35.2507 67.9386 35.4267 67.8106 35.64C68.056 36.0133 68.1786 36.488 68.1786 37.064C68.1786 37.9067 67.9226 38.5413 67.4106 38.968C66.8986 39.384 66.2213 39.592 65.3786 39.592H65.3626C65.0106 39.7947 64.744 39.9813 64.5626 40.152C64.3813 40.3227 64.2906 40.5147 64.2906 40.728C64.2906 41.0693 64.5466 41.24 65.0586 41.24H67.0586C67.784 41.24 68.3813 41.4 68.8506 41.72C69.3306 42.0293 69.5706 42.4987 69.5706 43.128C69.5706 43.64 69.4053 44.1147 69.0746 44.552C68.744 44.9893 68.2586 45.3413 67.6186 45.608C66.9786 45.8747 66.2053 46.008 65.2986 46.008C64.3706 46.008 63.592 45.864 62.9626 45.576C62.344 45.2987 62.0346 44.8827 62.0346 44.328C62.0346 43.9653 62.1786 43.6507 62.4666 43.384C62.7653 43.1173 63.176 42.9093 63.6986 42.76L63.7946 43.016C63.56 43.0907 63.3733 43.24 63.2346 43.464C63.096 43.688 63.0266 43.9387 63.0266 44.216C63.0266 44.7067 63.2453 45.08 63.6826 45.336C64.1306 45.6027 64.728 45.736 65.4746 45.736C66.296 45.736 67 45.576 67.5866 45.256C68.1733 44.9467 68.4666 44.4613 68.4666 43.8C68.4666 43.416 68.328 43.1173 68.0506 42.904C67.784 42.6907 67.304 42.584 66.6106 42.584H65.4266C64.7973 42.584 64.2906 42.504 63.9066 42.344C63.5333 42.184 63.3466 41.864 63.3466 41.384C63.3466 41.0533 63.464 40.7387 63.6986 40.44C63.944 40.1413 64.344 39.848 64.8986 39.56C64.1946 39.4853 63.6293 39.24 63.2026 38.824C62.7866 38.408 62.5786 37.8213 62.5786 37.064C62.5786 36.2213 62.8346 35.592 63.3466 35.176C63.8586 34.7493 64.536 34.536 65.3786 34.536C66.3813 34.536 67.1226 34.8133 67.6026 35.368C67.8053 35.08 68.0613 34.8453 68.3706 34.664C68.68 34.472 68.9893 34.376 69.2986 34.376C69.576 34.376 69.8 34.456 69.9706 34.616C70.1413 34.776 70.2266 35.0053 70.2266 35.304C70.2266 35.6027 70.1413 35.8267 69.9706 35.976C69.8106 36.1253 69.6293 36.2 69.4266 36.2ZM65.3786 39.304C65.8053 39.304 66.1253 39.1387 66.3386 38.808C66.5626 38.4667 66.6746 37.8853 66.6746 37.064C66.6746 36.2427 66.5626 35.6667 66.3386 35.336C66.1253 34.9947 65.8053 34.824 65.3786 34.824C64.952 34.824 64.6266 34.9947 64.4026 35.336C64.1893 35.6667 64.0826 36.2427 64.0826 37.064C64.0826 37.8853 64.1893 38.4667 64.4026 38.808C64.6266 39.1387 64.952 39.304 65.3786 39.304ZM77.5955 41.08C77.4035 41.6667 77.0408 42.1733 76.5075 42.6C75.9848 43.016 75.3502 43.224 74.6035 43.224C73.8462 43.224 73.1902 43.0533 72.6355 42.712C72.0808 42.36 71.6542 41.8747 71.3555 41.256C71.0675 40.6267 70.9235 39.9013 70.9235 39.08C70.9235 38.152 71.0728 37.3467 71.3715 36.664C71.6702 35.9813 72.0915 35.4587 72.6355 35.096C73.1795 34.7227 73.8142 34.536 74.5395 34.536C75.4995 34.536 76.2355 34.8293 76.7475 35.416C77.2702 35.992 77.5315 36.872 77.5315 38.056H72.5235C72.4915 38.3547 72.4755 38.696 72.4755 39.08C72.4755 39.784 72.5875 40.3973 72.8115 40.92C73.0462 41.4427 73.3502 41.848 73.7235 42.136C74.1075 42.4133 74.5075 42.552 74.9235 42.552C75.4355 42.552 75.8888 42.4293 76.2835 42.184C76.6782 41.9387 77.0088 41.528 77.2755 40.952L77.5955 41.08ZM74.4755 34.84C73.9742 34.84 73.5422 35.0853 73.1795 35.576C72.8168 36.0667 72.5928 36.792 72.5075 37.752H75.9955C76.0168 36.92 75.8942 36.2267 75.6275 35.672C75.3715 35.1173 74.9875 34.84 74.4755 34.84ZM84.1213 34.536C84.8679 34.536 85.4333 34.7387 85.8173 35.144C86.0199 35.3573 86.1639 35.624 86.2493 35.944C86.3346 36.264 86.3773 36.696 86.3773 37.24V41.512C86.3773 41.9493 86.4679 42.2533 86.6493 42.424C86.8306 42.584 87.1453 42.664 87.5933 42.664V43C86.6119 42.9573 85.9719 42.936 85.6733 42.936C85.3746 42.936 84.7773 42.9573 83.8813 43V42.664C84.2759 42.664 84.5479 42.584 84.6973 42.424C84.8573 42.2533 84.9373 41.9493 84.9373 41.512V36.888C84.9373 36.2907 84.8519 35.8373 84.6813 35.528C84.5106 35.208 84.1639 35.048 83.6413 35.048C83.2039 35.048 82.8146 35.176 82.4733 35.432C82.1319 35.688 81.8653 36.04 81.6733 36.488C81.4919 36.9253 81.4013 37.416 81.4013 37.96V41.512C81.4013 41.9493 81.4759 42.2533 81.6253 42.424C81.7853 42.584 82.0626 42.664 82.4573 42.664V43C81.5613 42.9573 80.9639 42.936 80.6653 42.936C80.3666 42.936 79.7266 42.9573 78.7453 43V42.664C79.1933 42.664 79.5079 42.584 79.6893 42.424C79.8706 42.2533 79.9613 41.9493 79.9613 41.512V36.504C79.9613 36.0133 79.8706 35.656 79.6893 35.432C79.5079 35.208 79.1933 35.096 78.7453 35.096V34.76C79.0866 34.792 79.4173 34.808 79.7373 34.808C80.4093 34.808 80.9639 34.7333 81.4013 34.584V36.472C81.6679 35.7893 82.0359 35.2987 82.5052 35C82.9853 34.6907 83.5239 34.536 84.1213 34.536ZM92.2921 34.536C93.0068 34.536 93.6255 34.7067 94.1481 35.048C94.6495 35.3787 94.9001 35.7893 94.9001 36.28C94.9001 36.5573 94.8201 36.776 94.6601 36.936C94.5001 37.096 94.2975 37.176 94.0521 37.176C93.8068 37.176 93.5988 37.1067 93.4281 36.968C93.2575 36.8187 93.1721 36.6213 93.1721 36.376C93.1721 36.152 93.2361 35.9653 93.3641 35.816C93.4921 35.656 93.6521 35.5493 93.8441 35.496C93.7375 35.304 93.5455 35.144 93.2681 35.016C93.0015 34.888 92.7135 34.824 92.4041 34.824C92.0095 34.824 91.6415 34.952 91.3001 35.208C90.9588 35.4533 90.6761 35.8693 90.4521 36.456C90.2281 37.032 90.1161 37.7947 90.1161 38.744C90.1161 40.0667 90.3295 41.032 90.7561 41.64C91.1828 42.2373 91.7375 42.536 92.4201 42.536C92.8788 42.536 93.3108 42.4027 93.7161 42.136C94.1321 41.8693 94.4735 41.4533 94.7401 40.888L95.0441 41C94.8628 41.608 94.5215 42.1307 94.0201 42.568C93.5295 43.0053 92.8895 43.224 92.1001 43.224C91.4388 43.224 90.8361 43.0533 90.2921 42.712C89.7588 42.3707 89.3375 41.88 89.0281 41.24C88.7188 40.5893 88.5641 39.8373 88.5641 38.984C88.5641 38.12 88.7188 37.352 89.0281 36.68C89.3481 36.008 89.7908 35.4853 90.3561 35.112C90.9215 34.728 91.5668 34.536 92.2921 34.536ZM102.297 34.808C102.767 34.808 103.172 34.792 103.513 34.76V35.08C103.3 35.1013 103.108 35.1973 102.937 35.368C102.777 35.5387 102.623 35.816 102.473 36.2L99.8494 43.08L99.3054 44.472C99.1027 44.9947 98.8734 45.368 98.6174 45.592C98.4574 45.7413 98.2654 45.848 98.0414 45.912C97.8174 45.976 97.5934 46.008 97.3694 46.008C97.0494 46.008 96.788 45.9227 96.5854 45.752C96.3827 45.5813 96.2814 45.3467 96.2814 45.048C96.2814 44.792 96.356 44.584 96.5054 44.424C96.6547 44.2747 96.8627 44.2 97.1294 44.2C97.364 44.2 97.556 44.264 97.7054 44.392C97.8654 44.5307 97.9454 44.7173 97.9454 44.952C97.9454 45.272 97.8014 45.512 97.5134 45.672C97.5347 45.6827 97.5667 45.688 97.6094 45.688C98.196 45.688 98.6494 45.272 98.9694 44.44L99.5294 42.984L96.6334 35.992C96.452 35.6293 96.2707 35.3893 96.0894 35.272C95.908 35.1547 95.7267 35.096 95.5454 35.096V34.76C96.004 34.824 96.5267 34.856 97.1134 34.856C97.6467 34.856 98.34 34.824 99.1934 34.76V35.096C98.8094 35.096 98.5267 35.128 98.3454 35.192C98.1747 35.256 98.0894 35.4107 98.0894 35.656C98.0894 35.88 98.1534 36.1413 98.2814 36.44L100.201 41.208L101.977 36.584C102.095 36.264 102.153 36.0187 102.153 35.848C102.153 35.6027 102.057 35.4213 101.865 35.304C101.673 35.1867 101.369 35.112 100.953 35.08V34.76C101.519 34.792 101.967 34.808 102.297 34.808Z" fill="black"/>
<line x1="0.5" y1="7" x2="0.5" y2="43" stroke="black"/>
</svg>
