<svg width="57" height="20" viewBox="0 0 57 20" fill="none" xmlns="http://www.w3.org/2000/svg">
<path d="M3.536 3.684C3.536 4.50533 3.85333 5.27067 4.488 5.98C5.14133 6.67067 5.92533 7.28667 6.84 7.828C7.77333 8.35067 8.69733 8.892 9.612 9.452C10.5267 9.99333 11.3013 10.6653 11.936 11.468C12.5893 12.2707 12.916 13.1573 12.916 14.128C12.916 15.6587 12.3467 16.9093 11.208 17.88C10.088 18.8507 8.56667 19.336 6.644 19.336C4.72133 19.336 2.81733 18.972 0.932 18.244V16.928C2.836 17.88 4.45067 18.356 5.776 18.356C7.12 18.356 8.16533 18.0293 8.912 17.376C9.65867 16.7227 10.032 15.8173 10.032 14.66C10.032 13.876 9.724 13.1667 9.108 12.532C8.492 11.8787 7.74533 11.3187 6.868 10.852C5.99067 10.3667 5.11333 9.872 4.236 9.368C3.35867 8.864 2.612 8.22933 1.996 7.464C1.38 6.68 1.072 5.73733 1.072 4.636C1.072 3.53467 1.55733 2.508 2.528 1.556C3.51733 0.603999 4.98267 0.127999 6.924 0.127999C8.19333 0.127999 9.79867 0.417333 11.74 0.996L11.46 2.9C8.94 1.81733 6.784 1.276 4.992 1.276C4.02133 1.74267 3.536 2.54533 3.536 3.684ZM26.9626 14.604L33.1506 0.463998H36.0066L37.0426 19H34.1866L33.4306 3.068H33.3186L26.2626 19H25.8706L18.9546 3.712H18.8426L18.0866 19H16.8546L17.8906 0.463998H20.4946L26.9626 14.604ZM39.7214 19L48.0374 0.0159991H48.4574L56.7734 19H53.7214L51.6214 13.96H43.3054L41.2334 19H39.7214ZM43.7254 12.896H51.1734L47.4774 3.824L43.7254 12.896Z" fill="black"/>
</svg>
